<?xml version="1.0" encoding="UTF-8" standalone="no"?>
<svg
   xmlns:dc="http://purl.org/dc/elements/1.1/"
   xmlns:cc="http://creativecommons.org/ns#"
   xmlns:rdf="http://www.w3.org/1999/02/22-rdf-syntax-ns#"
   xmlns:svg="http://www.w3.org/2000/svg"
   xmlns="http://www.w3.org/2000/svg"
   xmlns:sodipodi="http://sodipodi.sourceforge.net/DTD/sodipodi-0.dtd"
   xmlns:inkscape="http://www.inkscape.org/namespaces/inkscape"
   style="fill-opacity:1; color-rendering:auto; color-interpolation:auto; stroke:black; text-rendering:auto; stroke-linecap:square; stroke-miterlimit:10; stroke-opacity:1; shape-rendering:auto; fill:black; stroke-dasharray:none; font-weight:normal; stroke-width:1; font-family:'Dialog'; font-style:normal; stroke-linejoin:miter; font-size:12px; stroke-dashoffset:0; image-rendering:auto;"
   width="667"
   height="400"
   version="1.1"
   id="svg5819"
   sodipodi:docname="DetDelays.svg"
   inkscape:version="0.92.1 r15371">
  <metadata
     id="metadata5823">
    <rdf:RDF>
      <cc:Work
         rdf:about="">
        <dc:format>image/svg+xml</dc:format>
        <dc:type
           rdf:resource="http://purl.org/dc/dcmitype/StillImage" />
      </cc:Work>
    </rdf:RDF>
  </metadata>
  <sodipodi:namedview
     pagecolor="#ffffff"
     bordercolor="#666666"
     borderopacity="1"
     objecttolerance="10"
     gridtolerance="10"
     guidetolerance="10"
     inkscape:pageopacity="0"
     inkscape:pageshadow="2"
     inkscape:window-width="1920"
     inkscape:window-height="1017"
     id="namedview5821"
     showgrid="false"
     inkscape:zoom="1.2043078"
     inkscape:cx="205.47414"
     inkscape:cy="181.46041"
     inkscape:window-x="-8"
     inkscape:window-y="-8"
     inkscape:window-maximized="1"
     inkscape:current-layer="svg5819" />
  <!--Generated by the Batik Graphics2D SVG Generator-->
  <defs
     id="genericDefs">
    <defs
       id="defs1">
      <clipPath
         id="clipPath1"
         clipPathUnits="userSpaceOnUse">
        <path
           id="path5695"
           d="M0 0 L667 0 L667 400 L0 400 L0 0 Z" />
      </clipPath>
    </defs>
    <marker
       inkscape:stockid="Arrow1Lstart"
       orient="auto"
       refY="0"
       refX="0"
       id="Arrow1Lstart-0"
       style="overflow:visible"
       inkscape:isstock="true">
      <path
         inkscape:connector-curvature="0"
         id="path4943-2"
         d="M 0,0 5,-5 -12.5,0 5,5 Z"
         style="fill:#000000;fill-opacity:1;fill-rule:evenodd;stroke:#000000;stroke-width:1.00000003pt;stroke-opacity:1"
         transform="matrix(0.8,0,0,0.8,10,0)" />
    </marker>
    <marker
       inkscape:stockid="Arrow1Lend"
       orient="auto"
       refY="0"
       refX="0"
       id="Arrow1Lend-7"
       style="overflow:visible"
       inkscape:isstock="true">
      <path
         inkscape:connector-curvature="0"
         id="path4946-0"
         d="M 0,0 5,-5 -12.5,0 5,5 Z"
         style="fill:#000000;fill-opacity:1;fill-rule:evenodd;stroke:#000000;stroke-width:1.00000003pt;stroke-opacity:1"
         transform="matrix(-0.8,0,0,-0.8,-10,0)" />
    </marker>
    <marker
       inkscape:stockid="Arrow1Lstart"
       orient="auto"
       refY="0"
       refX="0"
       id="Arrow1Lstart-0-7"
       style="overflow:visible"
       inkscape:isstock="true">
      <path
         inkscape:connector-curvature="0"
         id="path4943-2-9"
         d="M 0,0 5,-5 -12.5,0 5,5 Z"
         style="fill:#000000;fill-opacity:1;fill-rule:evenodd;stroke:#000000;stroke-width:1.00000003pt;stroke-opacity:1"
         transform="matrix(0.8,0,0,0.8,10,0)" />
    </marker>
    <marker
       inkscape:stockid="Arrow1Lend"
       orient="auto"
       refY="0"
       refX="0"
       id="Arrow1Lend-7-0"
       style="overflow:visible"
       inkscape:isstock="true">
      <path
         inkscape:connector-curvature="0"
         id="path4946-0-2"
         d="M 0,0 5,-5 -12.5,0 5,5 Z"
         style="fill:#000000;fill-opacity:1;fill-rule:evenodd;stroke:#000000;stroke-width:1.00000003pt;stroke-opacity:1"
         transform="matrix(-0.8,0,0,-0.8,-10,0)" />
    </marker>
  </defs>
  <g
     id="g5729"
     style="color-interpolation:linearRGB;fill:#262626;stroke:#262626;stroke-width:2.667;stroke-linejoin:round;color-rendering:optimizeQuality;image-rendering:optimizeQuality;text-rendering:geometricPrecision;stroke-miterlimit:10;stroke-dasharray:none">
    <line
       id="line5709"
       y1="283"
       x2="604"
       x1="114"
       style="fill:none;stroke-width:2.667;stroke-miterlimit:10;stroke-dasharray:none"
       y2="283" />
    <line
       id="line5711"
       y1="62"
       x2="604"
       x1="114"
       style="fill:none;stroke-width:2.667;stroke-miterlimit:10;stroke-dasharray:none"
       y2="62" />
    <line
       id="line5713"
       y1="283"
       x2="114"
       x1="114"
       style="fill:none;stroke-width:2.667;stroke-miterlimit:10;stroke-dasharray:none"
       y2="270.76669" />
    <line
       id="line5715"
       y1="283"
       x2="277.33331"
       x1="277.33331"
       style="fill:none;stroke-width:2.667;stroke-miterlimit:10;stroke-dasharray:none"
       y2="270.76669" />
    <line
       id="line5717"
       y1="283"
       x2="440.66669"
       x1="440.66669"
       style="fill:none;stroke-width:2.667;stroke-miterlimit:10;stroke-dasharray:none"
       y2="270.76669" />
    <line
       id="line5719"
       y1="283"
       x2="604"
       x1="604"
       style="fill:none;stroke-width:2.667;stroke-miterlimit:10;stroke-dasharray:none"
       y2="270.76669" />
    <line
       id="line5721"
       y1="62"
       x2="114"
       x1="114"
       style="fill:none;stroke-width:2.667;stroke-miterlimit:10;stroke-dasharray:none"
       y2="74.233299" />
    <line
       id="line5723"
       y1="62"
       x2="277.33331"
       x1="277.33331"
       style="fill:none;stroke-width:2.667;stroke-miterlimit:10;stroke-dasharray:none"
       y2="74.233299" />
    <line
       id="line5725"
       y1="62"
       x2="440.66669"
       x1="440.66669"
       style="fill:none;stroke-width:2.667;stroke-miterlimit:10;stroke-dasharray:none"
       y2="74.233299" />
    <line
       id="line5727"
       y1="62"
       x2="604"
       x1="604"
       style="fill:none;stroke-width:2.667;stroke-miterlimit:10;stroke-dasharray:none"
       y2="74.233299" />
  </g>
  <g
     id="g5733"
     style="font-size:40px;font-family:SansSerif;color-interpolation:linearRGB;fill:#262626;stroke:#262626;color-rendering:optimizeQuality;image-rendering:optimizeQuality;text-rendering:geometricPrecision"
     transform="translate(114,293.6667)">
    <path
       inkscape:connector-curvature="0"
       id="path5731"
       d="m -9.8438,26.875 q 0,-5.0781 1.0469,-8.1719 Q -7.75,15.6094 -5.6875,13.9297 -3.625,12.25 -0.5,12.25 q 2.2969,0 4.0391,0.9297 1.7421,0.9297 2.875,2.6719 1.1328,1.7422 1.7734,4.2578 0.6406,2.5156 0.6406,6.7656 0,5.0469 -1.0312,8.1406 -1.0313,3.0938 -3.0938,4.7813 -2.0625,1.6875 -5.2031,1.6875 -4.1406,0 -6.5,-2.9688 -2.8438,-3.5781 -2.8438,-11.6406 z m 3.625,0 q 0,7.0469 1.6485,9.3828 1.6484,2.336 4.0703,2.336 2.4219,0 4.0703,-2.3438 1.6485,-2.3438 1.6485,-9.375 0,-7.0625 -1.6485,-9.3906 -1.6484,-2.3282 -4.1172,-2.3282 -2.4219,0 -3.8593,2.0469 -1.8126,2.625 -1.8126,9.6719 z"
       style="stroke:none" />
  </g>
  <g
     id="g5737"
     style="font-size:40px;font-family:SansSerif;color-interpolation:linearRGB;fill:#262626;stroke:#262626;color-rendering:optimizeQuality;image-rendering:optimizeQuality;text-rendering:geometricPrecision"
     transform="translate(277.3333,293.6667)">
    <path
       inkscape:connector-curvature="0"
       id="path5735"
       d="m -9.8438,33.5 3.7032,-0.3125 q 0.4062,2.6875 1.8984,4.0469 1.4922,1.3594 3.6016,1.3594 2.5468,0 4.3047,-1.9141 1.7578,-1.9141 1.7578,-5.0703 0,-3.0156 -1.6953,-4.75 -1.6954,-1.7344 -4.4297,-1.7344 -1.6875,0 -3.0547,0.7656 -1.3672,0.7656 -2.1484,2 L -9.2188,27.4688 -6.4375,12.75 H 7.7969 v 3.3594 H -3.625 l -1.5469,7.7031 q 2.5781,-1.7969 5.4063,-1.7969 3.75,0 6.3281,2.5938 2.5781,2.5937 2.5781,6.6875 0,3.875 -2.2656,6.7187 -2.75,3.4688 -7.5156,3.4688 -3.9063,0 -6.375,-2.1875 Q -9.4844,37.1094 -9.8438,33.5 Z"
       style="stroke:none" />
  </g>
  <g
     id="g5741"
     style="font-size:40px;font-family:SansSerif;color-interpolation:linearRGB;fill:#262626;stroke:#262626;color-rendering:optimizeQuality;image-rendering:optimizeQuality;text-rendering:geometricPrecision"
     transform="translate(440.6667,293.6667)">
    <path
       inkscape:connector-curvature="0"
       id="path5739"
       d="m -7.5938,41 h -3.5156 V 18.5938 q -1.2656,1.2187 -3.3281,2.4296 -2.0625,1.211 -3.7031,1.8047 v -3.3906 q 2.9531,-1.3906 5.1562,-3.3594 2.2032,-1.9687 3.125,-3.8281 h 2.2656 z M 1.4023,26.875 q 0,-5.0781 1.0469,-8.1719 1.0469,-3.0937 3.1094,-4.7734 2.0625,-1.6797 5.1875,-1.6797 2.2969,0 4.0391,0.9297 1.7421,0.9297 2.875,2.6719 1.1328,1.7422 1.7734,4.2578 0.6406,2.5156 0.6406,6.7656 0,5.0469 -1.0312,8.1406 -1.0313,3.0938 -3.0938,4.7813 -2.0625,1.6875 -5.2031,1.6875 -4.1406,0 -6.5,-2.9688 Q 1.4023,34.9375 1.4023,26.875 Z m 3.625,0 q 0,7.0469 1.6485,9.3828 1.6484,2.336 4.0703,2.336 2.4219,0 4.0703,-2.3438 1.6484,-2.3438 1.6484,-9.375 0,-7.0625 -1.6484,-9.3906 -1.6484,-2.3282 -4.1172,-2.3282 -2.4219,0 -3.8594,2.0469 -1.8125,2.625 -1.8125,9.6719 z"
       style="stroke:none" />
  </g>
  <g
     id="g5745"
     style="font-size:40px;font-family:SansSerif;color-interpolation:linearRGB;fill:#262626;stroke:#262626;color-rendering:optimizeQuality;image-rendering:optimizeQuality;text-rendering:geometricPrecision"
     transform="translate(604,293.6667)">
    <path
       inkscape:connector-curvature="0"
       id="path5743"
       d="m -7.5938,41 h -3.5156 V 18.5938 q -1.2656,1.2187 -3.3281,2.4296 -2.0625,1.211 -3.7031,1.8047 v -3.3906 q 2.9531,-1.3906 5.1562,-3.3594 2.2032,-1.9687 3.125,-3.8281 h 2.2656 z m 8.9961,-7.5 3.7032,-0.3125 q 0.4062,2.6875 1.8984,4.0469 1.4922,1.3594 3.6016,1.3594 2.5468,0 4.3047,-1.9141 1.7578,-1.9141 1.7578,-5.0703 0,-3.0156 -1.6953,-4.75 -1.6954,-1.7344 -4.4297,-1.7344 -1.6875,0 -3.0547,0.7656 -1.3672,0.7656 -2.1485,2 L 2.0273,27.4688 4.8086,12.75 H 19.043 v 3.3594 H 7.6211 l -1.5469,7.7031 q 2.5781,-1.7969 5.4063,-1.7969 3.75,0 6.3281,2.5938 2.5781,2.5937 2.5781,6.6875 0,3.875 -2.2656,6.7187 -2.75,3.4688 -7.5156,3.4688 -3.9063,0 -6.375,-2.1875 Q 1.7617,37.1094 1.4023,33.5 Z"
       style="stroke:none" />
  </g>
  <g
     id="g5749"
     style="font-size:44px;font-family:SansSerif;color-interpolation:linearRGB;fill:#262626;stroke:#262626;color-rendering:optimizeQuality;image-rendering:optimizeQuality;text-rendering:geometricPrecision"
     transform="translate(165,390)">
    <path
       inkscape:connector-curvature="0"
       id="path5747"
       d="M 3.3906,0 V -31.5 H 14.25 q 3.6719,0 5.6094,0.4531 2.7031,0.625 4.6094,2.25 2.5,2.1094 3.7343,5.3907 1.2344,3.2812 1.2344,7.4843 0,3.5938 -0.8359,6.3594 -0.836,2.7656 -2.1485,4.5859 -1.3125,1.8204 -2.875,2.8594 -1.5625,1.0391 -3.7578,1.5781 Q 17.625,0 14.7656,0 Z m 4.1719,-3.7188 h 6.7187 q 3.125,0 4.8985,-0.5781 1.7734,-0.5781 2.8203,-1.6406 1.4844,-1.4687 2.3125,-3.9766 0.8281,-2.5078 0.8281,-6.0703 0,-4.9375 -1.625,-7.5937 -1.625,-2.6563 -3.9375,-3.5625 -1.6875,-0.6406 -5.3906,-0.6406 h -6.625 z m 42.7285,-3.625 4,0.4844 q -0.9375,3.5 -3.5,5.4375 -2.5625,1.9375 -6.5312,1.9375 -5,0 -7.9375,-3.0859 -2.9375,-3.0859 -2.9375,-8.6485 0,-5.75 2.9687,-8.9296 2.9688,-3.1797 7.6875,-3.1797 4.5781,0 7.4766,3.1093 2.8984,3.1094 2.8984,8.7657 0,0.3437 -0.0156,1.0312 H 37.3848 q 0.2187,3.7657 2.125,5.7578 1.9062,1.9922 4.7656,1.9922 2.125,0 3.6328,-1.1172 1.5078,-1.1171 2.3828,-3.5547 z m -12.6875,-6.25 h 12.7344 q -0.25,-2.8906 -1.4531,-4.3281 -1.8594,-2.2343 -4.7969,-2.2343 -2.6719,0 -4.4844,1.7812 -1.8125,1.7812 -2,4.7812 z m 29.9863,10.1407 0.5625,3.4062 q -1.6406,0.3438 -2.9218,0.3438 -2.1094,0 -3.2657,-0.6641 -1.1562,-0.664 -1.6328,-1.75 -0.4765,-1.0859 -0.4765,-4.5703 v -13.125 h -2.8282 v -3 h 2.8282 v -5.6563 l 3.8437,-2.3124 v 7.9687 h 3.8906 v 3 h -3.8906 v 13.3437 q 0,1.6563 0.2031,2.125 0.2032,0.4688 0.6641,0.75 0.4609,0.2813 1.3203,0.2813 0.6563,0 1.7031,-0.1406 z m 19.3965,-3.8907 4,0.4844 q -0.9375,3.5 -3.5,5.4375 -2.5625,1.9375 -6.5312,1.9375 -5,0 -7.9375,-3.0859 -2.9375,-3.0859 -2.9375,-8.6485 0,-5.75 2.9687,-8.9296 2.9688,-3.1797 7.6875,-3.1797 4.5782,0 7.4766,3.1093 2.8984,3.1094 2.8984,8.7657 0,0.3437 -0.0156,1.0312 H 74.0801 q 0.2187,3.7657 2.125,5.7578 1.9062,1.9922 4.7656,1.9922 2.125,0 3.6328,-1.1172 1.5078,-1.1171 2.3828,-3.5547 z m -12.6875,-6.25 h 12.7344 q -0.25,-2.8906 -1.4531,-4.3281 -1.8594,-2.2343 -4.7969,-2.2343 -2.6719,0 -4.4844,1.7812 -1.8125,1.7812 -2,4.7812 z m 36.4395,5.2344 3.7969,0.5 q -0.625,3.9219 -3.1954,6.1485 -2.5703,2.2265 -6.3046,2.2265 -4.6875,0 -7.5313,-3.0625 -2.8437,-3.0625 -2.8437,-8.7812 0,-3.6875 1.2265,-6.461 1.2266,-2.7734 3.7266,-4.1562 2.5,-1.3828 5.4531,-1.3828 3.7031,0 6.0703,1.875 2.3672,1.875 3.0391,5.3437 l -3.7656,0.5782 q -0.5313,-2.2969 -1.8985,-3.461 -1.3672,-1.164 -3.3047,-1.164 -2.9218,0 -4.75,2.0937 -1.8281,2.0937 -1.8281,6.625 0,4.6094 1.7656,6.6875 1.7657,2.0781 4.5938,2.0781 2.2812,0 3.8047,-1.3906 1.5234,-1.3906 1.9453,-4.2969 z m 15.5469,4.9063 0.5625,3.4062 q -1.6407,0.3438 -2.9219,0.3438 -2.1094,0 -3.2656,-0.6641 -1.1563,-0.664 -1.6329,-1.75 -0.4765,-1.0859 -0.4765,-4.5703 v -13.125 h -2.8281 v -3 h 2.8281 v -5.6563 l 3.8437,-2.3124 v 7.9687 h 3.8907 v 3 h -3.8907 v 13.3437 q 0,1.6563 0.2032,2.125 0.2031,0.4688 0.664,0.75 0.461,0.2813 1.3203,0.2813 0.6563,0 1.7032,-0.1406 z m 3.8027,-23.5938 V -31.5 h 3.875 v 4.4531 z m 0,27.0469 v -22.8125 h 3.875 V 0 Z m 8.3223,-11.4062 q 0,-6.3438 3.5156,-9.3907 2.9375,-2.5312 7.1719,-2.5312 4.7031,0 7.6953,3.0781 2.9922,3.0781 2.9922,8.5156 0,4.4063 -1.3204,6.9297 -1.3203,2.5235 -3.8515,3.9219 -2.5313,1.3984 -5.5156,1.3984 -4.7813,0 -7.7344,-3.0703 -2.9531,-3.0703 -2.9531,-8.8515 z m 3.9687,0 q 0,4.375 1.9141,6.5546 1.914,2.1797 4.8047,2.1797 2.8906,0 4.7968,-2.1875 1.9063,-2.1875 1.9063,-6.6718 0,-4.2344 -1.9219,-6.4141 -1.9219,-2.1797 -4.7812,-2.1797 -2.8907,0 -4.8047,2.1641 -1.9141,2.164 -1.9141,6.5547 z M 164.3184,0 v -22.8125 h 3.4687 v 3.2344 q 2.5156,-3.75 7.2656,-3.75 2.0625,0 3.7969,0.7422 1.7344,0.7421 2.5938,1.9453 0.8593,1.2031 1.2031,2.8437 0.2031,1.0781 0.2031,3.7657 V 0 h -3.8594 v -13.875 q 0,-2.375 -0.4531,-3.5391 -0.4531,-1.164 -1.6016,-1.8671 -1.1484,-0.7032 -2.6953,-0.7032 -2.4687,0 -4.2656,1.5703 -1.7969,1.5703 -1.7969,5.9453 V 0 Z m 45.1953,0 v -27.7812 h -10.375 V -31.5 h 24.9687 v 3.7188 H 213.6855 V 0 Z m 18.3925,-27.0469 V -31.5 h 3.875 v 4.4531 z m 0,27.0469 v -22.8125 h 3.875 V 0 Z m 9.7598,0 v -22.8125 h 3.4531 v 3.2031 q 1.0782,-1.6875 2.8594,-2.7031 1.7813,-1.0156 4.0625,-1.0156 2.5313,0 4.1563,1.0469 1.625,1.0468 2.2812,2.9374 2.7188,-3.9843 7.0469,-3.9843 3.4062,0 5.2266,1.875 1.8203,1.875 1.8203,5.7969 V 0 h -3.8438 v -14.375 q 0,-2.3125 -0.375,-3.3359 -0.375,-1.0235 -1.3594,-1.6485 -0.9843,-0.625 -2.3281,-0.625 -2.4062,0 -3.9922,1.6016 -1.5859,1.6016 -1.5859,5.1328 V 0 h -3.875 v -14.8281 q 0,-2.5781 -0.9453,-3.8672 -0.9453,-1.2891 -3.086,-1.2891 -1.6406,0 -3.0234,0.8594 -1.3828,0.8594 -2.0078,2.5156 -0.625,1.6563 -0.625,4.7656 V 0 Z m 52.2617,-7.3438 4,0.4844 q -0.9375,3.5 -3.5,5.4375 -2.5625,1.9375 -6.5312,1.9375 -5,0 -7.9375,-3.0859 -2.9375,-3.0859 -2.9375,-8.6485 0,-5.75 2.9687,-8.9296 2.9688,-3.1797 7.6875,-3.1797 4.5782,0 7.4766,3.1093 2.8984,3.1094 2.8984,8.7657 0,0.3437 -0.0156,1.0312 h -17.0156 q 0.2187,3.7657 2.125,5.7578 1.9062,1.9922 4.7656,1.9922 2.125,0 3.6328,-1.1172 1.5078,-1.1171 2.3828,-3.5547 z m -12.6875,-6.25 h 12.7344 q -0.25,-2.8906 -1.4531,-4.3281 -1.8594,-2.2343 -4.7969,-2.2343 -2.6719,0 -4.4844,1.7812 -1.8125,1.7812 -2,4.7812 z m 41.1641,22.8594 q -3.2031,-4.0468 -5.4141,-9.4609 -2.2109,-5.4141 -2.2109,-11.2109 0,-5.1094 1.6406,-9.7969 1.9375,-5.4375 5.9844,-10.8281 h 2.7656 q -2.5937,4.4687 -3.4375,6.375 -1.3125,2.9687 -2.0625,6.1874 -0.9219,4.0157 -0.9219,8.0782 0,10.3437 6.4219,20.6562 z"
       style="stroke:none" />
  </g>
  <g
     id="g5753"
     style="font-size:44px;font-family:mwb_cmmi10;color-interpolation:linearRGB;fill:#262626;stroke:#262626;color-rendering:optimizeQuality;image-rendering:optimizeQuality;text-rendering:geometricPrecision"
     transform="translate(488,390)">
    <path
       inkscape:connector-curvature="0"
       id="path5751"
       d="m 1.2188,8.2656 q 0,-0.25 0.0468,-0.3437 l 6.4688,-25.9688 q 0.1875,-0.625 0.6953,-1.0078 0.5078,-0.3828 1.1484,-0.3828 0.5625,0 0.9531,0.3281 0.3907,0.3282 0.3907,0.8906 0,0.125 -0.0157,0.2032 -0.0156,0.0781 -0.0312,0.1562 L 8.2656,-7.5625 q -0.4218,1.8281 -0.4218,3.1563 0,1.6406 0.7734,2.6874 0.7734,1.0469 2.3359,1.0469 3.2031,0 5.6407,-3.9843 0.0156,-0.0469 0.0234,-0.0704 0.0078,-0.0234 0.0078,-0.0703 l 3.1875,-12.75 q 0.1406,-0.5937 0.6797,-1.0078 0.539,-0.4141 1.164,-0.4141 0.5157,0 0.9141,0.3438 0.3985,0.3438 0.3985,0.9062 0,0.25 -0.0469,0.3438 l -3.1563,12.6719 q -0.3281,1.25 -0.3281,2.1406 0,1.8906 1.2969,1.8906 1.375,0 2.0703,-1.6953 0.6953,-1.6953 1.2109,-4.1016 0.0938,-0.25 0.375,-0.25 h 0.5156 q 0.1719,0 0.2891,0.1329 0.1172,0.1328 0.1172,0.289 -0.7813,3.0781 -1.6953,4.9375 Q 22.7031,0.5 20.6406,0.5 q -1.4531,0 -2.5781,-0.8438 -1.125,-0.8437 -1.4687,-2.25 -1.1094,1.375 -2.5782,2.2344 Q 12.5469,0.5 10.9219,0.5 8.1719,0.5 6.5938,-0.7969 L 4.3594,8.0938 Q 4.2344,8.7188 3.7188,9.1094 3.2031,9.5 2.5625,9.5 2.0156,9.5 1.6172,9.1641 1.2188,8.8281 1.2188,8.2656 Z"
       style="stroke:none" />
  </g>
  <g
     id="g5757"
     style="font-size:44px;font-family:SansSerif;color-interpolation:linearRGB;fill:#262626;stroke:#262626;color-rendering:optimizeQuality;image-rendering:optimizeQuality;text-rendering:geometricPrecision"
     transform="translate(515,390)">
    <path
       inkscape:connector-curvature="0"
       id="path5755"
       d="m 1.3594,-6.8125 3.8125,-0.5937 q 0.3281,2.2968 1.7969,3.5156 1.4687,1.2187 4.125,1.2187 2.6562,0 3.9453,-1.0781 1.289,-1.0781 1.289,-2.5469 0,-1.3125 -1.1406,-2.0625 Q 14.3906,-8.875 11.2344,-9.6719 6.9844,-10.75 5.3438,-11.5312 3.7031,-12.3125 2.8516,-13.6953 2,-15.0781 2,-16.7656 q 0,-1.5156 0.6953,-2.8203 0.6953,-1.3047 1.8985,-2.1641 0.9062,-0.6562 2.4609,-1.1172 1.5547,-0.4609 3.3515,-0.4609 2.6719,0 4.7032,0.7734 2.0312,0.7735 3,2.0938 0.9687,1.3203 1.3281,3.5234 l -3.7813,0.5156 q -0.25,-1.75 -1.4843,-2.7422 -1.2344,-0.9921 -3.5,-0.9921 -2.6563,0 -3.7969,0.8828 -1.1406,0.8828 -1.1406,2.0703 0,0.75 0.4687,1.3437 0.4844,0.625 1.4844,1.0313 0.5781,0.2187 3.4219,0.9843 4.1094,1.1094 5.7265,1.8047 1.6172,0.6953 2.5391,2.0235 0.9219,1.3281 0.9219,3.3125 0,1.9375 -1.125,3.6406 -1.125,1.7031 -3.25,2.6406 -2.125,0.9375 -4.8125,0.9375 -4.4532,0 -6.7813,-1.8515 Q 2,-3.1875 1.3594,-6.8125 Z M 27.4375,9.2656 h -2.7656 q 6.4219,-10.3125 6.4219,-20.6562 0,-4.0313 -0.9219,-8.0156 -0.7344,-3.2188 -2.0469,-6.1876 -0.8438,-1.9218 -3.4531,-6.4374 h 2.7656 q 4.0313,5.3906 5.9687,10.8281 1.6563,4.6875 1.6563,9.7969 0,5.7968 -2.2266,11.2109 -2.2265,5.4141 -5.3984,9.4609 z"
       style="stroke:none" />
  </g>
  <g
     id="g5775"
     style="color-interpolation:linearRGB;fill:#262626;stroke:#262626;stroke-width:2.66669989;stroke-linejoin:round;color-rendering:optimizeQuality;image-rendering:optimizeQuality;text-rendering:geometricPrecision">
    <line
       id="line5759"
       y1="283"
       x2="114"
       x1="114"
       style="fill:none"
       y2="62" />
    <line
       id="line5761"
       y1="283"
       x2="604"
       x1="604"
       style="fill:none"
       y2="62" />
    <line
       id="line5763"
       y1="283"
       x2="126.2333"
       x1="114"
       style="fill:none"
       y2="283" />
    <line
       id="line5765"
       y1="172.5"
       x2="126.2333"
       x1="114"
       style="fill:none"
       y2="172.5" />
    <line
       id="line5767"
       y1="62"
       x2="126.2333"
       x1="114"
       style="fill:none"
       y2="62" />
    <line
       id="line5769"
       y1="283"
       x2="591.76672"
       x1="604"
       style="fill:none"
       y2="283" />
    <line
       id="line5771"
       y1="172.5"
       x2="591.76672"
       x1="604"
       style="fill:none"
       y2="172.5" />
    <line
       id="line5773"
       y1="62"
       x2="591.76672"
       x1="604"
       style="fill:none"
       y2="62" />
  </g>
  <g
     id="g5779"
     style="font-size:40px;font-family:SansSerif;color-interpolation:linearRGB;fill:#262626;stroke:#262626;color-rendering:optimizeQuality;image-rendering:optimizeQuality;text-rendering:geometricPrecision"
     transform="translate(103.3333,283)">
    <path
       inkscape:connector-curvature="0"
       id="path5777"
       d="m -21.3438,1.875 q 0,-5.0781 1.0469,-8.1719 1.0469,-3.0937 3.1094,-4.7734 2.0625,-1.6797 5.1875,-1.6797 2.2969,0 4.0391,0.9297 1.7421,0.9297 2.875,2.6719 1.1328,1.7422 1.7734,4.2578 0.6406,2.5156 0.6406,6.7656 0,5.0469 -1.0312,8.1406 -1.0313,3.0938 -3.0938,4.7813 -2.0625,1.6875 -5.2031,1.6875 -4.1406,0 -6.5,-2.9688 -2.8438,-3.5781 -2.8438,-11.6406 z m 3.625,0 q 0,7.0469 1.6485,9.3828 1.6484,2.336 4.0703,2.336 2.4219,0 4.0703,-2.3438 1.6485,-2.3438 1.6485,-9.375 0,-7.0625 -1.6485,-9.3906 -1.6484,-2.3282 -4.1172,-2.3282 -2.4219,0 -3.8593,2.0469 -1.8126,2.625 -1.8126,9.6719 z"
       style="stroke:none" />
  </g>
  <g
     id="g5783"
     style="font-size:40px;font-family:SansSerif;color-interpolation:linearRGB;fill:#262626;stroke:#262626;color-rendering:optimizeQuality;image-rendering:optimizeQuality;text-rendering:geometricPrecision"
     transform="translate(103.3333,172.5)">
    <path
       inkscape:connector-curvature="0"
       id="path5781"
       d="m -21.3438,8.5 3.7032,-0.3125 q 0.4062,2.6875 1.8984,4.0469 1.4922,1.3594 3.6016,1.3594 2.5468,0 4.3047,-1.9141 1.7578,-1.9141 1.7578,-5.0703 0,-3.0156 -1.6953,-4.75 -1.6954,-1.7344 -4.4297,-1.7344 -1.6875,0 -3.0547,0.7656 -1.3672,0.7656 -2.1484,2 l -3.3126,-0.4218 2.7813,-14.7188 h 14.2344 v 3.3594 H -15.125 l -1.5469,7.7031 q 2.5781,-1.7969 5.4063,-1.7969 3.75,0 6.3281,2.5938 2.5781,2.5937 2.5781,6.6875 0,3.875 -2.2656,6.7187 -2.75,3.4688 -7.5156,3.4688 -3.9063,0 -6.375,-2.1875 -2.4688,-2.1875 -2.8282,-5.7969 z"
       style="stroke:none" />
  </g>
  <g
     id="g5787"
     style="font-size:40px;font-family:SansSerif;color-interpolation:linearRGB;fill:#262626;stroke:#262626;color-rendering:optimizeQuality;image-rendering:optimizeQuality;text-rendering:geometricPrecision"
     transform="translate(103.3333,62)">
    <path
       inkscape:connector-curvature="0"
       id="path5785"
       d="m -30.0938,16 h -3.5156 V -6.4062 q -1.2656,1.2187 -3.3281,2.4296 -2.0625,1.211 -3.7031,1.8047 v -3.3906 q 2.9531,-1.3906 5.1562,-3.3594 2.2032,-1.9687 3.125,-3.8281 h 2.2656 z m 8.9961,-14.125 q 0,-5.0781 1.0469,-8.1719 1.0469,-3.0937 3.1094,-4.7734 2.0625,-1.6797 5.1875,-1.6797 2.2969,0 4.0391,0.9297 1.7421,0.9297 2.875,2.6719 1.1328,1.7422 1.7734,4.2578 0.6406,2.5156 0.6406,6.7656 0,5.0469 -1.0312,8.1406 -1.0313,3.0938 -3.0938,4.7813 -2.0625,1.6875 -5.2031,1.6875 -4.1406,0 -6.5,-2.9688 -2.8438,-3.5781 -2.8438,-11.6406 z m 3.625,0 q 0,7.0469 1.6485,9.3828 1.6484,2.336 4.0703,2.336 2.4219,0 4.0703,-2.3438 1.6484,-2.3438 1.6484,-9.375 0,-7.0625 -1.6484,-9.3906 -1.6484,-2.3282 -4.1172,-2.3282 -2.4219,0 -3.8594,2.0469 -1.8125,2.625 -1.8125,9.6719 z"
       style="stroke:none" />
  </g>
  <g
     id="g5791"
     style="font-size:44px;font-family:SansSerif;color-interpolation:linearRGB;fill:#262626;stroke:#262626;color-rendering:optimizeQuality;image-rendering:optimizeQuality;text-rendering:geometricPrecision"
     transform="rotate(-90,113.74995,58.74995)">
    <path
       inkscape:connector-curvature="0"
       id="path5789"
       d="m -100.3906,-10 v -31.5 h 21.25 v 3.7188 h -17.0782 v 9.75 h 14.7813 v 3.7187 H -96.2188 V -10 Z m 26.1269,0 v -22.8125 h 3.4844 v 3.4531 q 1.3281,-2.4218 2.4531,-3.1953 1.125,-0.7734 2.4844,-0.7734 1.9531,0 3.9688,1.2343 l -1.3282,3.5938 q -1.4218,-0.8438 -2.8281,-0.8438 -1.2812,0 -2.2891,0.7657 -1.0078,0.7656 -1.4296,2.125 -0.6563,2.0625 -0.6563,4.5 V -10 Z m 30.3086,-7.3438 4,0.4844 q -0.9375,3.5 -3.5,5.4375 -2.5625,1.9375 -6.5312,1.9375 -5,0 -7.9375,-3.0859 -2.9375,-3.0859 -2.9375,-8.6485 0,-5.75 2.9687,-8.9296 2.9688,-3.1797 7.6875,-3.1797 4.5781,0 7.4766,3.1093 2.8984,3.1094 2.8984,8.7657 0,0.3437 -0.0156,1.0312 h -17.0156 q 0.2187,3.7657 2.125,5.7578 1.9062,1.9922 4.7656,1.9922 2.125,0 3.6328,-1.1172 1.5078,-1.1171 2.3828,-3.5547 z m -12.6875,-6.25 h 12.7344 q -0.25,-2.8906 -1.4531,-4.3281 -1.8594,-2.2343 -4.7969,-2.2343 -2.6719,0 -4.4844,1.7812 -1.8125,1.7812 -2,4.7812 z M -20.5469,-1.25 v -11.1719 q -0.9062,1.2657 -2.5312,2.1016 -1.625,0.8359 -3.4531,0.8359 -4.0626,0 -6.9922,-3.2422 -2.9297,-3.2422 -2.9297,-8.8984 0,-3.4375 1.1953,-6.1641 1.1953,-2.7265 3.4609,-4.1328 2.2657,-1.4062 4.9688,-1.4062 4.2343,0 6.6562,3.5625 v -3.0469 h 3.4844 V -1.25 Z m -11.9375,-20.2188 q 0,4.4063 1.8516,6.6016 1.8516,2.1953 4.4297,2.1953 2.4687,0 4.25,-2.0937 1.7812,-2.0938 1.7812,-6.3594 0,-4.5625 -1.875,-6.8594 -1.875,-2.2968 -4.4219,-2.2968 -2.5,0 -4.2578,2.1406 -1.7578,2.1406 -1.7578,6.6718 z M 4.3301,-10 v -3.3594 q -2.6719,3.875 -7.25,3.875 -2.0156,0 -3.7656,-0.7734 -1.75,-0.7734 -2.6016,-1.9453 -0.8516,-1.1719 -1.1953,-2.875 -0.2344,-1.125 -0.2344,-3.6094 v -14.125 h 3.875 v 12.6563 q 0,3.0156 0.2344,4.0781 0.3594,1.5156 1.539,2.3906 1.1797,0.875 2.9297,0.875 1.7344,0 3.2578,-0.8906 1.5235,-0.8907 2.1641,-2.4297 0.6406,-1.5391 0.6406,-4.461 V -32.8125 H 7.7832 V -10 Z m 25.1269,-7.3438 4,0.4844 q -0.9375,3.5 -3.5,5.4375 -2.5625,1.9375 -6.5312,1.9375 -5,0 -7.9375,-3.0859 -2.9375,-3.0859 -2.9375,-8.6485 0,-5.75 2.9687,-8.9296 2.9688,-3.1797 7.6875,-3.1797 4.5782,0 7.4766,3.1093 2.8984,3.1094 2.8984,8.7657 0,0.3437 -0.0156,1.0312 H 16.5508 q 0.2187,3.7657 2.125,5.7578 1.9062,1.9922 4.7656,1.9922 2.125,0 3.6328,-1.1172 1.5078,-1.1171 2.3828,-3.5547 z m -12.6875,-6.25 h 12.7344 q -0.25,-2.8906 -1.4531,-4.3281 -1.8594,-2.2343 -4.7969,-2.2343 -2.6719,0 -4.4844,1.7812 -1.8125,1.7812 -2,4.7812 z M 38.3184,-10 v -22.8125 h 3.4687 v 3.2344 q 2.5156,-3.75 7.2656,-3.75 2.0625,0 3.7969,0.7422 1.7344,0.7421 2.5938,1.9453 0.8593,1.2031 1.2031,2.8437 0.2031,1.0781 0.2031,3.7657 V -10 h -3.8594 v -13.875 q 0,-2.375 -0.4531,-3.5391 -0.4531,-1.164 -1.6016,-1.8671 -1.1484,-0.7032 -2.6953,-0.7032 -2.4687,0 -4.2656,1.5703 -1.7969,1.5703 -1.7969,5.9453 V -10 Z m 39.3613,-8.3594 3.7969,0.5 q -0.625,3.9219 -3.1954,6.1485 -2.5703,2.2265 -6.3046,2.2265 -4.6875,0 -7.5313,-3.0625 -2.8437,-3.0625 -2.8437,-8.7812 0,-3.6875 1.2265,-6.461 1.2266,-2.7734 3.7266,-4.1562 2.5,-1.3828 5.4531,-1.3828 3.7031,0 6.0703,1.875 2.3672,1.875 3.0391,5.3437 l -3.7656,0.5782 q -0.5313,-2.2969 -1.8985,-3.461 -1.3672,-1.164 -3.3047,-1.164 -2.9218,0 -4.75,2.0937 -1.8281,2.0937 -1.8281,6.625 0,4.6094 1.7656,6.6875 1.7657,2.0781 4.5938,2.0781 2.2812,0 3.8047,-1.3906 1.5234,-1.3906 1.9453,-4.2969 z m 6.9375,17.1406 -0.4375,-3.625 q 1.2656,0.3438 2.2187,0.3438 1.2813,0 2.0547,-0.4297 0.7735,-0.4297 1.2735,-1.1953 0.3593,-0.5938 1.1875,-2.8906 0.0937,-0.3125 0.3437,-0.9375 l -8.6719,-22.8594 h 4.1719 l 4.75,13.2031 q 0.9219,2.5156 1.6563,5.2969 0.6718,-2.6719 1.5937,-5.2031 l 4.875,-13.2969 h 3.8594 l -8.6719,23.2031 q -1.4062,3.75 -2.1719,5.1719 -1.0312,1.9219 -2.3672,2.8125 -1.3359,0.8906 -3.1796,0.8906 -1.1094,0 -2.4844,-0.4844 z"
       style="stroke:none" />
  </g>
  <g
     id="g5795"
     style="font-size:40px;font-family:mwb_cmsy10;color-interpolation:linearRGB;fill:#262626;stroke:#262626;color-rendering:optimizeQuality;image-rendering:optimizeQuality;text-rendering:geometricPrecision"
     transform="translate(114,53)">
    <path
       inkscape:connector-curvature="0"
       id="path5793"
       d="m 5.875,-1.1562 q 0,-0.3126 0.2031,-0.5626 L 14.3906,-10 6.0781,-18.3281 q -0.2031,-0.1875 -0.2031,-0.5157 0,-0.2968 0.2344,-0.5546 0.2344,-0.2578 0.5781,-0.2578 0.2656,0 0.5937,0.2656 l 8.2813,8.2812 8.25,-8.2812 q 0.3281,-0.2656 0.5781,-0.2656 0.3438,0 0.5782,0.2343 0.2343,0.2344 0.2343,0.5781 0,0.3282 -0.2031,0.5157 L 16.6875,-10 25,-1.7188 q 0.2031,0.25 0.2031,0.5626 0,0.3281 -0.2343,0.5624 -0.2344,0.2344 -0.5782,0.2344 -0.2812,0 -0.5781,-0.2812 l -8.25,-8.25 -8.2813,8.25 Q 7,-0.3594 6.6875,-0.3594 q -0.3437,0 -0.5781,-0.25 -0.2344,-0.25 -0.2344,-0.5468 z"
       style="stroke:none" />
  </g>
  <g
     id="g5799"
     style="font-size:40px;font-family:SansSerif;color-interpolation:linearRGB;fill:#262626;stroke:#262626;color-rendering:optimizeQuality;image-rendering:optimizeQuality;text-rendering:geometricPrecision"
     transform="translate(146,53)">
    <path
       inkscape:connector-curvature="0"
       id="path5797"
       d="m 14.9062,0 h -3.5156 v -22.4062 q -1.2656,1.2187 -3.3281,2.4296 -2.0625,1.211 -3.7031,1.8047 v -3.3906 q 2.9531,-1.3906 5.1562,-3.3594 2.2032,-1.9687 3.125,-3.8281 h 2.2656 z m 8.9961,-14.125 q 0,-5.0781 1.0469,-8.1719 1.0469,-3.0937 3.1094,-4.7734 2.0625,-1.6797 5.1875,-1.6797 2.2969,0 4.0391,0.9297 1.7421,0.9297 2.875,2.6719 1.1328,1.7422 1.7734,4.2578 0.6406,2.5156 0.6406,6.7656 0,5.0469 -1.0312,8.1406 -1.0313,3.0938 -3.0938,4.7813 -2.0625,1.6875 -5.2031,1.6875 -4.1406,0 -6.5,-2.9688 -2.8438,-3.5781 -2.8438,-11.6406 z m 3.625,0 q 0,7.0469 1.6485,9.3828 1.6484,2.336 4.0703,2.336 2.4219,0 4.0703,-2.3438 1.6484,-2.3438 1.6484,-9.375 0,-7.0625 -1.6484,-9.3906 -1.6484,-2.3282 -4.1172,-2.3282 -2.4219,0 -3.8594,2.0469 -1.8125,2.625 -1.8125,9.6719 z"
       style="stroke:none" />
  </g>
  <g
     id="g5803"
     style="font-size:32px;font-family:SansSerif;color-interpolation:linearRGB;fill:#262626;stroke:#262626;color-rendering:optimizeQuality;image-rendering:optimizeQuality;text-rendering:geometricPrecision"
     transform="translate(191,33)">
    <path
       inkscape:connector-curvature="0"
       id="path5801"
       d="M 10.3438,0 V -5.4844 H 0.4062 v -2.5781 l 10.4532,-14.8437 h 2.2968 V -8.0625 H 16.25 v 2.5781 H 13.1562 V 0 Z m 0,-8.0625 V -18.3906 L 3.1719,-8.0625 Z"
       style="stroke:none" />
  </g>
  <path
     d="m 114,84.0071 0.9257,4e-4 0.9257,0.0012 0.9257,0.002 0.9257,0.0028 0.9257,0.0036 0.9257,0.0044 0.9257,0.0052 0.9257,0.006 0.9257,0.0068 0.9257,0.0076 0.9257,0.0084 0.9257,0.0092 0.9257,0.01 0.9257,0.0107 0.9257,0.0116 0.9257,0.0124 0.9257,0.0132 0.9257,0.014 0.9257,0.0148 0.9256,0.0156 0.9258,0.0164 0.9256,0.0172 0.9257,0.018 0.9257,0.0188 0.9257,0.0196 0.9257,0.0204 0.9257,0.0212 0.9257,0.022 0.9257,0.0228 0.9257,0.0237 0.9257,0.0244 0.9257,0.0252 0.9257,0.026 0.9257,0.0269 0.9257,0.0276 0.9257,0.0285 0.9257,0.0292 0.9257,0.03 0.9257,0.0309 0.9257,0.0317 0.9257,0.0325 0.9257,0.0332 0.9257,0.0341 0.9257,0.0349 0.9257,0.0357 0.9257,0.0365 0.9257,0.0373 0.9257,0.0382 0.9257,0.0389 0.9257,0.0398 0.9257,0.0406 0.9257,0.0413 0.9257,0.0422 0.9257,0.043 0.9257,0.0438 0.9257,0.0447 0.9257,0.0454 0.9257,0.0463 0.9256,0.0471 0.9258,0.0478 0.9256,0.0487 0.9257,0.0496 0.9257,0.0503 0.9257,0.0512 0.9257,0.052 0.9257,0.0528 0.9257,0.0536 0.9257,0.0544 0.9257,0.0553 0.9257,0.0561 0.9257,0.0569 0.9257,0.0577 0.9257,0.0586 0.9257,0.0594 0.9257,0.0602 0.9257,0.061 0.9257,0.0619 0.9257,0.0627 0.9257,0.0635 0.9257,0.0644 0.9257,0.0652 0.9257,0.066 0.9257,0.0668 0.9257,0.0677 0.9257,0.0686 0.9257,0.0693 0.9257,0.0702 0.9257,0.071 0.9257,0.0719 0.9257,0.0727 0.9257,0.0735 0.9257,0.0744 0.9257,0.0752 0.9257,0.0761 0.9257,0.0769 0.9257,0.0778 0.9257,0.0786 0.9257,0.0794 0.9257,0.0803 0.9256,0.0812 0.9258,0.082 0.9256,0.0828 0.9257,0.0837 0.9258,0.0846 0.9256,0.0854 0.9257,0.0862 0.9257,0.0872 0.9257,0.0879 0.9257,0.0889 0.9257,0.0897 0.9257,0.0905 0.9257,0.0914 0.9257,0.0923 0.9257,0.0932 0.9257,0.094 0.9257,0.0949 0.9257,0.0957 0.9257,0.0966 0.9257,0.0975 0.9257,0.0984 0.9257,0.0992 0.9257,0.1001 0.9257,0.101 0.9257,0.1019 0.9257,0.1027 0.9257,0.1037 0.9257,0.1045 0.9257,0.1054 0.9257,0.1062 0.9257,0.1072 0.9257,0.1081 0.9257,0.1089 0.9257,0.1098 0.9257,0.1108 0.9257,0.1116 0.9257,0.1125 0.9257,0.1134 0.9257,0.1143 0.9257,0.1152 0.9257,0.1161 0.9256,0.117 0.9258,0.118 0.9256,0.1188 0.9257,0.1197 0.9257,0.1207 0.9257,0.1215 0.9257,0.1225 0.9257,0.1234 0.9257,0.1243 0.9257,0.1253 0.9257,0.1261 0.9257,0.1271 0.9257,0.128 0.9257,0.1289 0.9257,0.1298 0.9257,0.1308 0.9257,0.1317 0.9257,0.1327 0.9257,0.1336 0.9257,0.1345 0.9257,0.1355 0.9257,0.1364 0.9257,0.1373 0.9257,0.1383 0.9257,0.1393 0.9257,0.1402 0.9257,0.1411 0.9257,0.1421 0.9257,0.1431 0.9257,0.144 0.9257,0.145 0.9257,0.1459 0.9257,0.1469 0.9257,0.1479 0.9257,0.1489 0.9257,0.1498 0.9257,0.1508 0.9257,0.1518 0.9257,0.1527 0.9256,0.1538 0.9257,0.1547 0.9258,0.1557 0.9256,0.1567 0.9257,0.1577 0.9258,0.1587 0.9256,0.1597 0.9257,0.1607 0.9257,0.1617 0.9257,0.1627 0.9257,0.1637 0.9257,0.1647 0.9257,0.1657 0.9257,0.1668 0.9257,0.1678 0.9257,0.1687 0.9257,0.1699 0.9257,0.1708 0.9257,0.1719 0.9257,0.1729 0.9257,0.1739 0.9257,0.175 0.9257,0.176 0.9257,0.1771 0.9257,0.1781 0.9257,0.1792 0.9257,0.1802 0.9257,0.1812 0.9257,0.1824 0.9257,0.1834 0.9257,0.1845 0.9257,0.1855 0.9257,0.1866 0.9257,0.1877 0.9257,0.1888 0.9257,0.1898 0.9257,0.191 0.9257,0.192 0.9257,0.1932 0.9257,0.1942 0.9257,0.1953 0.9257,0.1964 0.9257,0.1976 0.9256,0.1987 0.9258,0.1997 0.9257,0.2009 0.9256,0.202 0.9257,0.2032 0.9257,0.2042 0.9257,0.2055 0.9257,0.2065 0.9258,0.2077 0.9256,0.2088 0.9257,0.21 0.9257,0.2112 0.9257,0.2123 0.9257,0.2135 0.9257,0.2146 0.9257,0.2158 0.9257,0.217 0.9257,0.2182 0.9257,0.2193 0.9257,0.2206 0.9257,0.2217 0.9257,0.223 0.9257,0.2241 0.9257,0.2254 0.9257,0.2266 0.9257,0.2277 0.9257,0.229 0.9257,0.2303 0.9257,0.2314 0.9257,0.2328 0.9257,0.2339 0.9257,0.2352 0.9257,0.2365 0.9257,0.2377 0.9257,0.2389 0.9257,0.2403 0.9256,0.2415 0.9258,0.2428 0.9257,0.2441 0.9257,0.2454 0.9257,0.2466 0.9257,0.248 0.9256,0.2493 0.9257,0.2506 0.9258,0.2519 0.9256,0.2532 0.9257,0.2546 0.9257,0.2559 0.9257,0.2573 0.9257,0.2586 0.9257,0.2599 0.9257,0.2613 0.9257,0.2627 0.9257,0.2641 0.9257,0.2654 0.9257,0.2669 0.9257,0.2682 0.9257,0.2696 0.9257,0.2711 0.9257,0.2724 0.9257,0.2739 0.9257,0.2753 0.9257,0.2768 0.9257,0.2782 0.9257,0.2796 0.9257,0.2811 0.9257,0.2826 0.9257,0.284 0.9257,0.2856 0.9257,0.287 0.9257,0.2885 0.9257,0.29 0.9257,0.2916 0.9257,0.2931 0.9257,0.2946 0.9257,0.2961 0.9257,0.2977 0.9257,0.2992 0.9257,0.3008 0.9257,0.3024 0.9257,0.304 0.9256,0.3055 0.9257,0.3072 0.9258,0.3088 0.9256,0.3104 0.9257,0.312 0.9257,0.3137 0.9257,0.3153 0.9257,0.317 0.9257,0.3186 0.9257,0.3204 0.9257,0.322 0.9258,0.3237 0.9256,0.3255 0.9257,0.3271 0.9257,0.329 0.9257,0.3306 0.9257,0.3324 0.9257,0.3342 0.9257,0.3359 0.9257,0.3378 0.9257,0.3395 0.9257,0.3414 0.9257,0.3432 0.9257,0.345 0.9257,0.3469 0.9257,0.3488 0.9257,0.3506 0.9257,0.3526 0.9257,0.3544 0.9257,0.3563 0.9257,0.3584 0.9257,0.3602 0.9257,0.3622 0.9257,0.3642 0.9257,0.3662 0.9257,0.3682 0.9257,0.3702 0.9257,0.3722 0.9257,0.3743 0.9257,0.3764 0.9257,0.3784 0.9257,0.3806 0.9257,0.3827 0.9256,0.3848 0.9257,0.387 0.9258,0.3891 0.9256,0.3913 0.9257,0.3935 0.9257,0.3958 0.9257,0.398 0.9257,0.4003 0.9257,0.4025 0.9257,0.4049 0.9257,0.4071 0.9257,0.4096 0.9257,0.4118 0.9257,0.4143 0.9257,0.4167 0.9257,0.4191 0.9257,0.4215 0.9257,0.4241 0.9257,0.4265 0.9257,0.429 0.9257,0.4316 0.9257,0.4342 0.9257,0.4367 0.9257,0.4394 0.9257,0.442 0.9257,0.4447 0.9257,0.4474 0.9257,0.4501 0.9257,0.4529 0.9257,0.4556 0.9257,0.4585 0.9257,0.4613 0.9257,0.4642 0.9257,0.4671 0.9257,0.47 0.9257,0.473 0.9257,0.476 0.9257,0.479 0.9257,0.4821 0.9256,0.4852 0.9258,0.4883 0.9257,0.4915 0.9256,0.4948 0.9257,0.4979 0.9258,0.5013 0.9256,0.5046 0.9257,0.508 0.9257,0.5114 0.9257,0.5148 0.9257,0.5184 0.9257,0.5219 0.9257,0.5255 0.9257,0.5291 0.9257,0.5328 0.9257,0.5366 0.9257,0.5403 0.9257,0.5442 0.9257,0.5481 0.9257,0.5521 0.9257,0.5561 0.9257,0.5601 0.9257,0.5642 0.9257,0.5685 0.9257,0.5727 0.9257,0.577 0.9257,0.5813 0.9257,0.5859 0.9257,0.5903 0.9257,0.595 0.9257,0.5996 0.9257,0.6044 0.9257,0.6092 0.9256,0.6141 0.9258,0.619 0.9257,0.6242 0.9256,0.6293 0.9257,0.6346 0.9258,0.6399 0.9257,0.6454 0.9257,0.651 0.9257,0.6566 0.9256,0.6623 0.9258,0.6683 0.9256,0.6742 0.9257,0.6804 0.9257,0.6866 0.9257,0.693 0.9257,0.6995 0.9258,0.7061 0.9256,0.713 0.9257,0.7199 0.9257,0.727 0.9257,0.7342 0.9257,0.7417 0.9257,0.7493 0.9257,0.7571 0.9257,0.7651 0.9257,0.7733 0.9257,0.7817 0.9257,0.7904 0.9257,0.7992 0.9257,0.8083 0.9257,0.8176 0.9257,0.8273 0.9257,0.8372 0.9257,0.8474 0.9257,0.8578 0.9257,0.8688 0.9257,0.8799 0.9256,0.8914 0.9258,0.9034 0.9257,0.9158 0.9257,0.9285 0.9257,0.9417 0.9257,0.9555 0.9257,0.9698 0.9257,0.9845 0.9257,1 0.9256,1.016 0.9258,1.0327 0.9257,1.0503 0.9256,1.0685 0.9258,1.0876 0.9256,1.1077 0.9257,1.1288 0.9258,1.151 0.9256,1.1744 0.9257,1.1992 0.9257,1.2253 0.9257,1.2531 0.9257,1.2827 0.9258,1.3142 0.9256,1.3481 0.9257,1.3844 0.9258,1.4236 0.9256,1.466 0.9257,1.5122 0.9257,1.5626 0.9257,1.6182 0.9257,1.6797 0.9257,1.7483 0.9257,1.8257 0.9257,1.9136 0.9257,2.0151 0.9257,2.1338 0.9257,2.2754 0.9257,2.4483 0.9257,2.6664 0.9257,2.9539 0.9257,3.3579 0.9257,3.9892 0.9257,5.2067 L 575.923,283"
     style="color-interpolation:linearRGB;fill:none;fill-rule:evenodd;stroke:#0072bd;stroke-width:2.667;stroke-linecap:butt;stroke-linejoin:round;color-rendering:optimizeQuality;image-rendering:optimizeQuality;text-rendering:geometricPrecision;stroke-miterlimit:10;stroke-dasharray:none"
     id="path5805"
     inkscape:connector-curvature="0" />
  <line
     x1="575.92297"
     x2="575.92297"
     y1="283"
     style="color-interpolation:linearRGB;fill:none;stroke:#ff0000;stroke-width:2.667;stroke-linecap:butt;stroke-linejoin:round;color-rendering:optimizeQuality;image-rendering:optimizeQuality;text-rendering:geometricPrecision;stroke-miterlimit:10;stroke-dasharray:none"
     y2="62"
     id="line5807" />
  <line
     x1="310.0462"
     x2="310.0462"
     y1="283"
     style="color-interpolation:linearRGB;fill:none;stroke:#000000;stroke-width:2.667;stroke-linecap:butt;stroke-linejoin:round;color-rendering:optimizeQuality;image-rendering:optimizeQuality;text-rendering:geometricPrecision;stroke-miterlimit:10;stroke-dasharray:none"
     y2="62"
     id="line5809" />
  <line
     x1="432.14911"
     x2="432.14911"
     y1="283"
     style="color-interpolation:linearRGB;fill:none;stroke:#000000;stroke-width:2.667;stroke-linecap:butt;stroke-linejoin:round;color-rendering:optimizeQuality;image-rendering:optimizeQuality;text-rendering:geometricPrecision;stroke-miterlimit:10;stroke-dasharray:none"
     y2="62"
     id="line5811" />
  <line
     x1="187.94341"
     x2="187.94341"
     y1="283"
     style="color-interpolation:linearRGB;fill:none;stroke:#000000;stroke-width:2.667;stroke-linecap:butt;stroke-linejoin:round;color-rendering:optimizeQuality;image-rendering:optimizeQuality;text-rendering:geometricPrecision;stroke-miterlimit:10;stroke-dasharray:none"
     y2="62"
     id="line5813" />
  <text
     xml:space="preserve"
     style="font-style:normal;font-weight:normal;font-size:40px;line-height:1.25;font-family:sans-serif;letter-spacing:0px;word-spacing:0px;color-interpolation:auto;fill:#000000;fill-opacity:1;stroke:none;stroke-width:1;stroke-linecap:square;stroke-linejoin:miter;stroke-miterlimit:10;stroke-dasharray:none;stroke-dashoffset:0;stroke-opacity:1;color-rendering:auto;image-rendering:auto;shape-rendering:auto;text-rendering:auto"
     x="252.6989"
     y="166.79323"
     id="text4931"><tspan
       sodipodi:role="line"
       id="tspan4929"
       x="252.6989"
       y="166.79323">Mean</tspan></text>
  <text
     xml:space="preserve"
     style="font-style:normal;font-weight:normal;font-size:40px;line-height:1.25;font-family:sans-serif;letter-spacing:0px;word-spacing:0px;color-interpolation:auto;fill:#000000;fill-opacity:1;stroke:none;stroke-width:1;stroke-linecap:square;stroke-linejoin:miter;stroke-miterlimit:10;stroke-dasharray:none;stroke-dashoffset:0;stroke-opacity:1;color-rendering:auto;image-rendering:auto;shape-rendering:auto;text-rendering:auto"
     x="483.50375"
     y="123.61491"
     id="text4935"><tspan
       sodipodi:role="line"
       id="tspan4933"
       x="483.50375"
       y="123.61491">Max</tspan></text>
  <text
     xml:space="preserve"
     style="font-style:normal;font-weight:normal;font-size:40px;line-height:1.25;font-family:sans-serif;letter-spacing:0px;word-spacing:0px;color-interpolation:auto;fill:#000000;fill-opacity:1;stroke:none;stroke-width:1;stroke-linecap:square;stroke-linejoin:miter;stroke-miterlimit:10;stroke-dasharray:none;stroke-dashoffset:0;stroke-opacity:1;color-rendering:auto;image-rendering:auto;shape-rendering:auto;text-rendering:auto"
     x="327.70944"
     y="252.14349"
     id="text4931-5"><tspan
       sodipodi:role="line"
       id="tspan4929-6"
       x="327.70944"
       y="252.14349">Std.</tspan></text>
  <path
     style="font-style:normal;font-weight:normal;font-size:12px;font-family:Dialog;color-interpolation:auto;fill:none;fill-opacity:1;stroke:#000000;stroke-width:1.5;stroke-linecap:butt;stroke-linejoin:miter;stroke-miterlimit:10;stroke-dasharray:none;stroke-dashoffset:0;stroke-opacity:1;marker-start:url(#Arrow1Lstart-0);marker-end:url(#Arrow1Lend-7);color-rendering:auto;image-rendering:auto;shape-rendering:auto;text-rendering:auto"
     d="m 311.00627,199.88505 120.32261,0"
     id="path4941-9"
     inkscape:connector-curvature="0"
     sodipodi:nodetypes="cc" />
  <path
     style="font-style:normal;font-weight:normal;font-size:12px;font-family:Dialog;color-interpolation:auto;fill:none;fill-opacity:1;stroke:#000000;stroke-width:1.5;stroke-linecap:butt;stroke-linejoin:miter;stroke-miterlimit:10;stroke-dasharray:none;stroke-dashoffset:0;stroke-opacity:1;marker-start:url(#Arrow1Lstart-0-7);marker-end:url(#Arrow1Lend-7-0);color-rendering:auto;image-rendering:auto;shape-rendering:auto;text-rendering:auto"
     d="m 190.68367,199.88505 h 120.3226"
     id="path4941-9-8"
     inkscape:connector-curvature="0"
     sodipodi:nodetypes="cc" />
</svg>
